<svg width="681" height="292" viewBox="0 0 681 292" fill="none" xmlns="http://www.w3.org/2000/svg">
<path d="M300.87 173.34C292.573 173.349 288.324 169.554 288.315 161.117C288.305 152.294 292.096 148.297 300.715 148.287C304.959 148.283 308.755 149.051 312.488 150.593L312.478 141.512C308.81 140.228 305.015 139.395 299.933 139.4C285.139 139.417 277.751 147.282 277.766 161.129C277.781 174.332 285.571 182.179 300.044 182.164C305.126 182.158 308.985 181.447 312.586 180.218L312.575 171.073C308.845 172.623 304.923 173.335 300.87 173.34Z" fill="white"/>
<path d="M330.208 174.017C325.513 174.022 323.581 171.834 323.575 166.231C323.569 160.693 325.495 158.436 330.191 158.431C334.95 158.426 336.884 160.678 336.889 166.216C336.895 171.82 334.967 174.011 330.208 174.017ZM347.439 166.204C347.427 156.029 341.953 150.303 330.182 150.316C318.475 150.33 313.015 156.067 313.026 166.243C313.038 176.547 318.446 182.144 330.217 182.131C342.052 182.118 347.45 176.509 347.439 166.204Z" fill="white"/>
<path d="M373.749 162.698L373.77 181.439L384.125 181.428L384.104 161.849C384.095 153.992 380.617 150.26 372.771 150.269C368.461 150.273 364.473 151.824 362.032 153.566L361.708 150.926L352.059 150.937L352.092 181.463L362.448 181.452L362.425 160.65C363.968 159.102 366.475 157.94 368.727 157.938C372.458 157.933 373.745 159.284 373.749 162.698Z" fill="white"/>
<path d="M399.369 174.327C396.28 174.33 391.908 173.626 388.882 172.342L388.89 180.263C391.465 181.291 396.162 182.058 401.051 182.053C410.376 182.042 415.262 178.689 415.255 172.57C415.249 167.354 413.125 165.037 405.983 162.856C401.413 161.444 398.97 161.189 398.968 159.579C398.966 158.098 401.41 157.901 404.625 157.898C407.133 157.895 410.48 158.407 412.925 159.499L412.916 151.706C410.535 150.936 406.418 150.232 402.559 150.236C392.716 150.247 388.412 153.601 388.418 159.591C388.424 164.743 391.322 166.93 396.919 168.856C401.681 170.46 404.64 170.908 404.642 172.647C404.644 174.192 403.035 174.323 399.369 174.327Z" fill="white"/>
<path d="M417.301 158.719L421.418 158.714L421.431 171.144C421.439 177.907 424.853 182.024 432.443 182.016C435.53 182.012 437.846 181.624 439.968 180.72L439.959 173.7C438.61 174.152 437.452 174.347 436.166 174.348C433.206 174.351 431.791 173.387 431.788 170.424L431.775 158.703L438.721 158.695L439.163 150.838L431.766 150.846L431.756 141.701L421.402 144.481L421.409 150.858L417.292 150.862L417.301 158.719Z" fill="white"/>
<path d="M464.314 150.167C460.329 150.558 456.084 152.044 453.449 153.658L453.126 150.824L443.282 150.835L443.318 181.362L453.67 181.351L453.648 160.805C456.155 159.515 460.913 158.351 464.322 157.961L464.314 150.167Z" fill="white"/>
<path d="M477.222 181.967C481.852 181.962 485.323 180.606 487.831 178.736L488.153 181.312L497.802 181.301L497.771 150.774L487.415 150.786L487.437 171.651C485.96 173.199 483.581 174.361 481.135 174.364C477.792 174.368 476.116 172.888 476.112 169.41L476.09 150.798L465.738 150.81L465.76 170.001C465.769 177.858 470.018 181.976 477.222 181.967Z" fill="white"/>
<path d="M507.27 184.96C505.983 184.962 504.758 184.834 503.348 184.321L503.356 191.534C505.479 192.369 507.473 192.624 510.56 192.62C518.471 192.612 522.707 187.133 526.174 178.757L537.787 150.729L526.979 150.741L519.09 170.134L511.029 150.758L500.155 150.771L513.89 180.702C512.094 183.924 510.746 184.956 507.27 184.96Z" fill="white"/>
<path d="M553.233 157.088C557.544 157.083 559.154 159.013 559.158 161.976V163.328L546.551 163.342C546.547 159.091 548.28 157.093 553.233 157.088ZM566.446 179.872L566.437 173.11C564.124 174.078 560.33 174.727 556.987 174.731C550.938 174.737 547.528 173.389 546.56 169.332L568.171 169.308L568.166 163.834C568.157 155.461 562.555 150.057 552.906 150.068C542.293 150.08 536.96 156.268 536.973 165.994C536.982 176.62 544 181.893 554.613 181.881C559.437 181.876 563.488 181.228 566.446 179.872Z" fill="white"/>
<path d="M604.834 161.603C604.825 153.746 601.35 150.014 593.5 150.022C589.193 150.027 585.205 151.578 582.764 153.319L582.436 150.679L572.787 150.69L572.823 181.216L583.179 181.205L583.157 160.404C584.7 158.855 587.208 157.693 589.459 157.691C593.186 157.687 594.478 159.037 594.478 162.451L594.5 181.193L604.856 181.181L604.834 161.603Z" fill="white"/>
<path d="M626.21 174.267C621.899 174.272 619.71 172.922 619.706 167.061C619.701 161.071 622.01 157.592 626.383 157.587C628.572 157.584 630.5 158.226 631.981 159.577L631.995 171.942C630.389 173.49 628.528 174.265 626.21 174.267ZM631.959 137.744L631.972 152.042C629.722 150.692 627.276 149.986 624.123 149.989C615.376 150 609.146 155.996 609.155 167.009C609.168 177.957 614.319 181.815 623.261 181.805C627.378 181.801 630.332 180.703 632.839 178.575L633.423 181.15L642.364 181.14L642.316 137.732L631.959 137.744Z" fill="white"/>
<path d="M663.197 173.645C658.505 173.65 656.573 171.462 656.564 165.859C656.559 160.321 658.487 158.064 663.184 158.059C667.942 158.054 669.874 160.307 669.879 165.844C669.887 171.448 667.959 173.64 663.197 173.645ZM663.175 149.945C651.465 149.958 646.004 155.696 646.017 165.871C646.026 176.175 651.439 181.773 663.206 181.76C675.044 181.746 680.439 176.137 680.43 165.833C680.416 155.657 674.942 149.932 663.175 149.945Z" fill="white"/>
<path d="M298.5 234.037C292.131 234.044 289.364 231.6 289.357 225.803C289.35 219.621 292.564 217.556 298.546 217.55C301.699 217.546 304.722 218.187 306.975 219.28L306.967 211.937C303.876 210.459 300.789 209.883 296.351 209.888C285.736 209.9 278.796 215.06 278.808 225.815C278.82 236.377 285.258 241.715 296.193 241.703C300.437 241.698 303.975 241.115 307.061 239.759L307.053 232.095C304.481 233.387 301.523 234.033 298.5 234.037Z" fill="white"/>
<path d="M325.327 233.556C320.632 233.561 318.7 231.373 318.694 225.77C318.688 220.232 320.614 217.975 325.31 217.97C330.069 217.965 332.003 220.218 332.008 225.755C332.015 231.359 330.087 233.55 325.327 233.556ZM325.301 209.855C313.594 209.869 308.134 215.606 308.146 225.782C308.157 236.086 313.565 241.683 325.336 241.67C337.171 241.657 342.57 236.048 342.558 225.743C342.547 215.568 337.072 209.842 325.301 209.855Z" fill="white"/>
<path d="M367.888 209.808C363.578 209.813 359.591 211.363 357.149 213.106L356.825 210.465L347.177 210.475L347.21 241.002L357.565 240.991L357.542 220.189C359.086 218.641 361.592 217.479 363.844 217.477C367.574 217.472 368.863 218.823 368.866 222.237L368.887 240.978L379.243 240.966L379.221 221.388C379.212 213.532 375.735 209.799 367.888 209.808Z" fill="white"/>
<path d="M437.352 199.427L426.773 229.064L416.192 199.451L405.385 199.463L421.256 240.921L432.447 240.909L448.222 199.415L437.352 199.427Z" fill="white"/>
<path d="M458.95 235.146C455.673 235.15 454.187 233.799 454.187 231.545C454.183 229.032 455.664 227.872 458.751 227.869L466.083 227.861L466.087 232.176C464.61 233.917 462.231 235.143 458.95 235.146ZM460.851 209.704C456.027 209.71 451.459 210.616 448.505 211.779L448.509 218.477C451.724 217.443 455.394 216.859 458.738 216.856C464.398 216.85 466.069 218.071 466.074 221.162V221.871L457.583 221.88C449.093 221.89 444.852 225.695 444.861 231.941C444.866 238.446 449.823 241.532 455.677 241.525C460.82 241.52 464.163 240.357 466.414 238.294L466.932 240.869L476.001 240.859L475.984 221.796C475.97 213.359 470.244 209.694 460.851 209.704Z" fill="white"/>
<path d="M494.397 233.819C492.726 233.821 491.952 233.242 491.947 231.246L491.912 197.434L481.555 197.446L481.595 232.288C481.6 238.729 484.306 241.494 490.997 241.487C493.827 241.483 495.498 241.16 497.488 240.385L497.484 233.364C496.52 233.687 495.489 233.817 494.397 233.819Z" fill="white"/>
<path d="M513.761 233.346C509.065 233.351 507.133 231.164 507.128 225.561C507.119 220.022 509.047 217.766 513.744 217.761C518.502 217.755 520.434 220.008 520.443 225.546C520.448 231.149 518.52 233.341 513.761 233.346ZM513.735 209.646C502.025 209.659 496.568 215.396 496.577 225.573C496.59 235.877 501.999 241.474 513.77 241.46C525.604 241.448 531.003 235.838 530.99 225.534C530.981 215.359 525.506 209.633 513.735 209.646Z" fill="white"/>
<path d="M556.642 209.598C552.654 209.989 548.413 211.476 545.777 213.089L545.45 210.255L535.611 210.266L535.642 240.793L545.998 240.782L545.976 220.237C548.484 218.946 553.242 217.782 556.651 217.392L556.642 209.598Z" fill="white"/>
<path d="M213.723 247.259C217.626 247.255 219.292 245.177 219.287 240.331C219.281 235.161 217.61 233.249 213.708 233.254C209.803 233.258 208.139 235.172 208.145 240.344C208.15 245.189 209.818 247.263 213.723 247.259Z" fill="white"/>
<path d="M158.016 234.658L155.096 242.355L160.951 242.349L158.016 234.658Z" fill="white"/>
<path d="M124.654 65.1554L147.555 18.7818C141.333 15.1758 133.644 14.143 126.271 16.6372C112.736 21.2167 105.441 35.9378 110.019 49.5033C112.506 56.8723 117.996 62.3845 124.654 65.1554Z" fill="white"/>
<path d="M130.465 82.6385C139.085 64.2058 150.893 38.9586 177.406 26.3398C183.916 23.2432 190.994 21.0655 198.452 19.8693L198.896 19.7981L202.891 11.6505C203.856 9.68348 203.074 7.26891 201.111 6.30013C182.617 -2.82622 160.243 4.8085 151.161 23.3327L100.964 125.711C99.5639 128.566 98.8383 131.704 98.8418 134.884L98.8542 145.94L98.8754 165.573C98.8781 167.465 100.412 168.997 102.301 168.995L111.18 168.985V168.977C111.59 138.183 118.08 109.137 130.465 82.6385Z" fill="white"/>
<path d="M254.697 130.906C254.695 129.014 253.161 127.482 251.272 127.484L235.108 127.502L235.065 89.1088C235.063 87.2165 233.53 85.6844 231.64 85.6866L193.884 85.7286C191.994 85.7304 190.465 87.2665 190.466 89.1579L190.509 127.551L146.041 127.601L196.774 24.1282C190.43 25.3382 184.458 27.2292 179.052 29.8019C153.781 41.8313 142.777 65.3607 133.937 84.2677C121.787 110.244 115.423 138.745 115.012 168.982L190.555 168.898L190.585 196.423C190.588 198.315 192.121 199.847 194.011 199.844L231.766 199.803C233.656 199.801 235.187 198.265 235.184 196.373L235.153 168.848L251.318 168.831C253.207 168.828 254.737 167.293 254.735 165.401L254.697 130.906Z" fill="white"/>
<path d="M90.7663 113.786C90.5448 113.854 90.3108 113.902 90.0911 113.972C90.3144 113.906 90.5417 113.85 90.7663 113.786Z" fill="white"/>
<path d="M238.244 253.746C234.705 253.75 231.413 253.184 229.216 252.127L229.209 245.818C231.648 246.954 234.863 247.725 237.465 247.722C240.148 247.718 241.572 247.432 241.57 245.803C241.569 244.135 239.859 243.77 235.914 242.552C230.627 240.848 228.835 238.895 228.83 234.62C228.824 229.45 232.522 226.718 239.719 226.71C242.607 226.706 245.982 227.273 247.894 227.881L247.901 234.232C245.338 233.218 242.98 232.814 240.945 232.816C238.547 232.819 236.636 232.984 236.638 234.571C236.639 235.956 237.859 236.279 241.561 237.254C247.987 238.997 249.373 241.723 249.378 245.795C249.383 250.558 245.726 253.738 238.244 253.746ZM213.73 253.773C205.067 253.783 200.347 249.799 200.336 240.352C200.326 230.581 205.037 226.748 213.7 226.739C222.321 226.729 227.083 230.552 227.094 240.323C227.105 249.769 222.351 253.764 213.73 253.773ZM191.718 253.391L181.861 239.559L181.876 253.402L174.233 253.41L174.204 227.189L180.709 227.182L190.607 241.056L190.591 227.172L198.237 227.163L198.266 253.384L191.718 253.391ZM164.177 253.422L161.974 247.846L154.085 247.855L151.936 253.435L143.967 253.444L153.982 227.212L162.075 227.204L172.148 253.413L164.177 253.422ZM183.061 219.88C185.785 219.877 187.861 221.584 190.423 221.581C192.13 221.579 193.431 220.887 194.08 219.948L194.085 224.795C193.558 225.527 192.135 226.14 190.55 226.142C187.866 226.145 185.424 224.437 183.187 224.441C181.478 224.442 180.178 225.054 179.203 226.032L179.198 221.227C179.969 220.493 181.473 219.882 183.061 219.88ZM255.536 219.936C255.534 218.365 254.261 217.094 252.693 217.095L152.532 217.207L142.974 217.218L136.367 217.225L136.325 178.832C136.323 176.939 134.789 175.408 132.9 175.409L95.144 175.451C93.254 175.454 91.724 176.989 91.7257 178.881L91.7682 217.274L47.3002 217.324L99.0085 111.861C97.9998 112.036 97.0101 112.267 96.0143 112.479C94.2521 112.894 92.4589 113.261 90.7657 113.786C90.5419 113.85 90.3142 113.905 90.0909 113.972C87.0317 114.952 84.0892 116.102 81.2954 117.431C55.4855 129.718 44.2468 153.747 35.2177 173.055C22.9244 199.347 16.4504 228.164 15.9263 258.705L91.8146 258.621L91.8447 286.146C91.8469 288.038 93.3805 289.57 95.2705 289.568L133.026 289.526C134.916 289.523 136.446 287.988 136.444 286.096L136.413 258.571L143.02 258.564L152.577 258.553L252.114 258.443C254.027 258.44 255.577 256.885 255.575 254.97L255.536 219.936Z" fill="white"/>
<path d="M79.6244 113.922C86.2637 110.758 93.4921 108.538 101.11 107.317L101.248 107.295L104.151 101.375C105.115 99.4074 104.334 96.9931 102.371 96.0242C97.7408 93.7395 92.8677 92.506 88.0206 92.2299C73.5074 91.4044 59.2289 99.1698 52.4202 113.057L2.22388 215.435C0.824417 218.289 0.0982406 221.428 0.10182 224.608L0.114148 235.664L0.135623 255.297C0.138009 257.187 1.66791 258.716 3.55494 258.718L3.5613 258.719L12.0396 258.709C12.5622 227.583 19.1614 198.211 31.6964 171.404C40.5108 152.57 52.5626 126.798 79.6244 113.922Z" fill="white"/>
</svg>
