<?xml version="1.0" encoding="utf-8"?>
<svg width="60px" height="60px" viewBox="0 0 60 60" version="1.1" xmlns:xlink="http://www.w3.org/1999/xlink" xmlns="http://www.w3.org/2000/svg">
  <defs>
    <path d="M40 0C51.0471 0 60 8.95264 60 20L60 40C60 51.0474 51.0471 60 40 60L20 60C8.95288 60 0 51.0474 0 40L0 20C0 8.95264 8.95288 0 20 0L40 0Z" id="path_1" />
    <clipPath id="clip_1">
      <use xlink:href="#path_1" clip-rule="evenodd" fill-rule="evenodd" />
    </clipPath>
  </defs>
  <g id="Menu Close">
    <path d="M40 0C51.0471 0 60 8.95264 60 20L60 40C60 51.0474 51.0471 60 40 60L20 60C8.95288 60 0 51.0474 0 40L0 20C0 8.95264 8.95288 0 20 0L40 0Z" id="Menu-Close" fill="#003748" stroke="none" />
    <g id="Close" fill-opacity="1" transform="matrix(0.70710677 0.70710677 -0.70710677 0.70710677 29.999998 7.3725834)" clip-path="url(#clip_1)">
      <path d="M0 32L0 0L32 0L32 32L0 32Z" id="Close" fill="none" stroke="none" />
      <path d="M16 0C17.6571 0 19 1.34292 19 3L19 29C19 30.6571 17.6571 32 16 32L16 32C14.3429 32 13 30.6571 13 29L13 3C13 1.34292 14.3429 0 16 0Z" id="Rectangle" fill="#F3EFE4" stroke="none" />
      <path d="M13 29L13 3Q13 2.85262 13.0144 2.70595Q13.0289 2.55928 13.0576 2.41473Q13.0864 2.27018 13.1292 2.12915Q13.172 1.98811 13.2284 1.85195Q13.2848 1.71579 13.3542 1.58581Q13.4237 1.45583 13.5056 1.33329Q13.5875 1.21075 13.681 1.09682Q13.7745 0.982893 13.8787 0.87868Q13.9829 0.774466 14.0968 0.680969Q14.2107 0.587471 14.3333 0.505591Q14.4558 0.423711 14.5858 0.354236Q14.7158 0.284761 14.8519 0.228361Q14.9881 0.171961 15.1291 0.129179Q15.2702 0.0863967 15.4147 0.0576442Q15.5593 0.0288916 15.7059 0.0144458Q15.8526 0 16 0L16 0Q16.1474 0 16.2941 0.0144458Q16.4407 0.0288916 16.5853 0.0576442Q16.7298 0.0863967 16.8709 0.129179Q17.0119 0.171961 17.148 0.228361Q17.2842 0.284761 17.4142 0.354236Q17.5442 0.423711 17.6667 0.505591Q17.7893 0.587471 17.9032 0.680969Q18.0171 0.774466 18.1213 0.87868Q18.2255 0.982893 18.319 1.09682Q18.4125 1.21075 18.4944 1.33329Q18.5763 1.45583 18.6458 1.58581Q18.7152 1.71579 18.7716 1.85195Q18.828 1.98811 18.8708 2.12915Q18.9136 2.27018 18.9424 2.41473Q18.9711 2.55928 18.9856 2.70595Q19 2.85262 19 3L19 29Q19 29.1474 18.9856 29.2941Q18.9711 29.4407 18.9424 29.5853Q18.9136 29.7298 18.8708 29.8709Q18.828 30.0119 18.7716 30.1481Q18.7152 30.2842 18.6458 30.4142Q18.5763 30.5442 18.4944 30.6667Q18.4125 30.7893 18.319 30.9032Q18.2255 31.0171 18.1213 31.1213Q18.0171 31.2255 17.9032 31.319Q17.7893 31.4125 17.6667 31.4944Q17.5442 31.5763 17.4142 31.6458Q17.2842 31.7152 17.148 31.7716Q17.0119 31.828 16.8709 31.8708Q16.7298 31.9136 16.5853 31.9424Q16.4407 31.9711 16.2941 31.9856Q16.1474 32 16 32L16 32Q15.8526 32 15.7059 31.9856Q15.5593 31.9711 15.4147 31.9424Q15.2702 31.9136 15.1291 31.8708Q14.9881 31.828 14.8519 31.7716Q14.7158 31.7152 14.5858 31.6458Q14.4558 31.5763 14.3333 31.4944Q14.2107 31.4125 14.0968 31.319Q13.9829 31.2255 13.8787 31.1213Q13.7745 31.0171 13.681 30.9032Q13.5875 30.7893 13.5056 30.6667Q13.4237 30.5442 13.3542 30.4142Q13.2848 30.2842 13.2284 30.148Q13.172 30.0119 13.1292 29.8709Q13.0864 29.7298 13.0576 29.5853Q13.0289 29.4407 13.0144 29.2941Q13 29.1474 13 29Z" transform="rotate(90 16 16)" id="Rectangle" fill="#F3EFE4" stroke="none" />
    </g>
  </g>
</svg>