<?xml version="1.0" encoding="utf-8"?>
<svg width="30.000305px" height="24.003784px" viewBox="0 0 30.000305 24.003784" version="1.1" xmlns:xlink="http://www.w3.org/1999/xlink" xmlns="http://www.w3.org/2000/svg">
  <path d="M29.6387 3.5874C28.6825 1.93896 26.1587 1.56738 22.3262 2.50488C20.5519 1.1333 18.4284 0.286133 16.1969 0.0605469C13.9654 -0.164551 11.7154 0.240234 9.70251 1.22949C7.68958 2.21875 5.99438 3.75244 4.80963 5.65674C3.62482 7.56104 2.99786 9.75977 3 12.0024C3.00012 12.5171 3.03271 13.0313 3.09747 13.5415C-0.36377 17.1274 -0.313782 19.2524 0.362488 20.4175C1 21.5225 2.32996 22.0024 4.07996 22.0024C5.29498 21.9775 6.50287 21.8096 7.67871 21.5024C9.45319 22.873 11.5765 23.7188 13.8074 23.9434C16.0383 24.168 18.2876 23.7627 20.2997 22.7734C22.3118 21.7842 24.0063 20.2505 25.1906 18.3467C26.375 16.4429 27.0018 14.2446 27 12.0024C27.0002 11.4907 26.9681 10.979 26.9037 10.4712C28.4662 8.84619 29.5062 7.30273 29.86 5.98145C30.1037 5.06641 30.03 4.26123 29.6387 3.5874L29.6387 3.5874ZM15 2.00244C17.2649 2.00488 19.4622 2.7749 21.233 4.18701C23.0038 5.59912 24.2436 7.56982 24.75 9.77783C22.6175 11.7852 19.7312 13.8438 16.9912 15.4189C13.5475 17.395 10.56 18.6274 8.17749 19.3027C6.71008 17.9341 5.68866 16.1553 5.24628 14.1982C4.80389 12.2407 4.961 10.1958 5.69714 8.3291C6.43329 6.4624 7.71442 4.86084 9.3736 3.73242C11.0329 2.604 12.9934 2.00098 15 2.00244L15 2.00244ZM2.09247 19.4141C1.90997 19.1001 2.01123 18.5088 2.37 17.7891C2.72473 17.1143 3.15637 16.4829 3.65619 15.9077C4.15173 17.3433 4.91522 18.6719 5.90619 19.8228C3.74994 20.1851 2.40497 19.9541 2.09247 19.4141L2.09247 19.4141ZM15 22.0024C13.3139 22.0044 11.6551 21.5767 10.18 20.7603C12.8876 19.8027 15.5001 18.5947 17.9837 17.1528C20.6812 15.604 23.0687 13.9253 24.9925 12.2676C24.9212 14.8716 23.8376 17.3452 21.9718 19.1631C20.1059 20.9805 17.6049 21.9995 15 22.0024L15 22.0024ZM27.9275 5.46387C27.715 6.25244 27.1537 7.15527 26.3487 8.10498C25.8545 6.66748 25.0909 5.33789 24.0987 4.18652C25.875 3.89258 27.52 3.91504 27.9112 4.59131C28.0237 4.7876 28.03 5.08154 27.9275 5.46387L27.9275 5.46387Z" id="Forma" fill="#FFFFFF" fill-rule="evenodd" stroke="none" />
</svg>