<?xml version="1.0" encoding="utf-8"?>
<svg width="30px" height="30px" viewBox="0 0 30 30" version="1.1" xmlns:xlink="http://www.w3.org/1999/xlink" xmlns="http://www.w3.org/2000/svg">
  <g id="FacebookLogo" fill-opacity="1">
    <path d="M517 3866L517 3866L517 3896L487 3896L487 3866L517 3866Z" id="FacebookLogo" fill="none" stroke="none" />
    <path d="M15 2.5C8.09644 2.5 2.5 8.09644 2.5 15C2.5 21.9035 8.09644 27.5 15 27.5C21.9035 27.5 27.5 21.9035 27.5 15C27.5 8.09644 21.9035 2.5 15 2.5L15 2.5ZM5 15C5 9.47715 9.47715 5 15 5C20.5229 5 25 9.47715 25 15C25 20.5229 20.5229 25 15 25C9.47715 25 5 20.5229 5 15L5 15Z" id="Vector" fill="#FFFFFF" fill-rule="evenodd" stroke="none" />
    <path d="M19.6875 9.0625L17.8152 9.0625C17.2812 9.06059 16.7522 9.16428 16.2584 9.36758C15.7639 9.57121 15.3146 9.87075 14.9364 10.2489C14.5583 10.6271 14.2587 11.0764 14.0551 11.5709C13.8518 12.0647 13.7481 12.5937 13.75 13.1277L13.75 26.25C13.75 26.9404 14.3096 27.5 15 27.5C15.6904 27.5 16.25 26.9404 16.25 26.25L16.25 13.125L16.25 13.125L16.25 13.1198C16.2491 12.915 16.2888 12.7121 16.3668 12.5228C16.4447 12.3335 16.5594 12.1615 16.7042 12.0167C16.849 11.8719 17.021 11.7572 17.2103 11.6793C17.3996 11.6013 17.6025 11.5616 17.8073 11.5625L17.8073 11.5625L19.6875 11.5625C20.3778 11.5625 20.9375 11.0029 20.9375 10.3125C20.9375 9.62214 20.3778 9.0625 19.6875 9.0625L19.6875 9.0625Z" id="Vector" fill="#FFFFFF" fill-rule="evenodd" stroke="none" />
    <path d="M10 16.875C10 16.1846 10.5596 15.625 11.25 15.625L18.75 15.625C19.4403 15.625 20 16.1846 20 16.875C20 17.5654 19.4403 18.125 18.75 18.125L11.25 18.125C10.5596 18.125 10 17.5654 10 16.875L10 16.875Z" id="Vector" fill="#FFFFFF" fill-rule="evenodd" stroke="none" />
  </g>
</svg>