<?xml version="1.0" encoding="utf-8"?>
<svg width="30px" height="30px" viewBox="0 0 30 30" version="1.1" xmlns:xlink="http://www.w3.org/1999/xlink" xmlns="http://www.w3.org/2000/svg">
  <g id="InstagramLogo" fill-opacity="1">
    <path d="M517 3866L517 3866L517 3896L487 3896L487 3866L517 3866Z" id="InstagramLogo" fill="none" stroke="none" />
    <path d="M15 9.375C11.8934 9.375 9.375 11.8934 9.375 15C9.375 18.1066 11.8934 20.625 15 20.625C18.1066 20.625 20.625 18.1066 20.625 15C20.625 11.8934 18.1066 9.375 15 9.375L15 9.375ZM11.25 15C11.25 12.9289 12.9289 11.25 15 11.25C17.0711 11.25 18.75 12.9289 18.75 15C18.75 17.0711 17.0711 18.75 15 18.75C12.9289 18.75 11.25 17.0711 11.25 15L11.25 15Z" id="Vector" fill="#FFFFFF" fill-rule="evenodd" stroke="none" />
    <path d="M9.84375 3.28125C6.21938 3.28125 3.28125 6.21938 3.28125 9.84375L3.28125 20.1563C3.28125 23.7806 6.21938 26.7188 9.84375 26.7188L20.1563 26.7188C23.7806 26.7188 26.7188 23.7806 26.7188 20.1563L26.7188 9.84375C26.7188 6.21938 23.7806 3.28125 20.1563 3.28125L9.84375 3.28125L9.84375 3.28125ZM5.15625 9.84375C5.15625 7.25491 7.25491 5.15625 9.84375 5.15625L20.1563 5.15625C22.7451 5.15625 24.8438 7.25491 24.8438 9.84375L24.8438 20.1563C24.8438 22.7451 22.7451 24.8438 20.1563 24.8438L9.84375 24.8438C7.25491 24.8438 5.15625 22.7451 5.15625 20.1563L5.15625 9.84375L5.15625 9.84375Z" id="Vector" fill="#FFFFFF" fill-rule="evenodd" stroke="none" />
    <path d="M21.0938 10.0781C21.741 10.0781 22.2656 9.55346 22.2656 8.90625C22.2656 8.25904 21.741 7.73438 21.0938 7.73438C20.4465 7.73438 19.9219 8.25904 19.9219 8.90625C19.9219 9.55346 20.4465 10.0781 21.0938 10.0781L21.0938 10.0781Z" id="Vector" fill="#FFFFFF" fill-rule="evenodd" stroke="none" />
  </g>
</svg>