<svg width="256" height="42" viewBox="0 0 256 42" fill="none" xmlns="http://www.w3.org/2000/svg">
<path d="M30.1 32H26.635V12.0325C26.6233 12.0675 26.6058 12.1492 26.5825 12.2775C26.5592 12.3942 26.53 12.5342 26.495 12.6975C26.4717 12.8492 26.4367 13.0067 26.39 13.17C26.355 13.3217 26.3142 13.45 26.2675 13.555L18.2175 32H14.84L6.8075 13.5725C6.76083 13.4908 6.72 13.3858 6.685 13.2575C6.65 13.1292 6.615 13.0008 6.58 12.8725C6.55667 12.7325 6.53333 12.61 6.51 12.505C6.49833 12.3883 6.4925 12.3008 6.4925 12.2425V32H3.0275V6.9225H5.8975C6.44583 6.9225 6.94167 7.07417 7.385 7.3775C7.84 7.66917 8.1725 8.05417 8.3825 8.5325L16.205 26.47C16.2983 26.7033 16.3683 26.9483 16.415 27.205C16.4733 27.45 16.5083 27.7183 16.52 28.01C16.555 27.4267 16.6658 26.9133 16.8525 26.47L24.675 8.5325C24.8967 8.03083 25.235 7.64 25.69 7.36C26.145 7.06833 26.635 6.9225 27.16 6.9225H30.1V32ZM34.7643 19.4525C34.7643 18.2742 34.916 17.1425 35.2193 16.0575C35.5226 14.9608 35.9543 13.94 36.5143 12.995C37.0743 12.0383 37.7393 11.175 38.5093 10.405C39.291 9.62333 40.1543 8.9525 41.0993 8.3925C42.056 7.8325 43.0768 7.40083 44.1618 7.0975C45.2585 6.79416 46.396 6.6425 47.5743 6.6425C48.7526 6.6425 49.8843 6.79416 50.9693 7.0975C52.066 7.40083 53.0868 7.8325 54.0318 8.3925C54.9885 8.9525 55.8518 9.62333 56.6218 10.405C57.4035 11.175 58.0743 12.0383 58.6343 12.995C59.1943 13.94 59.626 14.9608 59.9293 16.0575C60.2326 17.1425 60.3843 18.2742 60.3843 19.4525C60.3843 20.6308 60.2326 21.7683 59.9293 22.865C59.626 23.95 59.1943 24.9708 58.6343 25.9275C58.0743 26.8725 57.4035 27.7358 56.6218 28.5175C55.8518 29.2875 54.9885 29.9525 54.0318 30.5125C53.0868 31.0725 52.066 31.5042 50.9693 31.8075C49.8843 32.1108 48.7526 32.2625 47.5743 32.2625C45.801 32.2625 44.1385 31.93 42.5868 31.265C41.0351 30.5883 39.676 29.6725 38.5093 28.5175C37.3543 27.3508 36.4385 25.9917 35.7618 24.44C35.0968 22.8883 34.7643 21.2258 34.7643 19.4525ZM38.2293 19.4525C38.2293 20.7475 38.4743 21.9608 38.9643 23.0925C39.4543 24.2242 40.1193 25.2158 40.9593 26.0675C41.811 26.9075 42.8026 27.5725 43.9343 28.0625C45.066 28.5525 46.2793 28.7975 47.5743 28.7975C48.8693 28.7975 50.0826 28.5525 51.2143 28.0625C52.346 27.5725 53.3318 26.9075 54.1718 26.0675C55.0235 25.2158 55.6943 24.2242 56.1843 23.0925C56.6743 21.9608 56.9193 20.7475 56.9193 19.4525C56.9193 18.1575 56.6743 16.9442 56.1843 15.8125C55.6943 14.6808 55.0235 13.695 54.1718 12.855C53.3318 12.0033 52.346 11.3325 51.2143 10.8425C50.0826 10.3525 48.8693 10.1075 47.5743 10.1075C46.2793 10.1075 45.066 10.3525 43.9343 10.8425C42.8026 11.3325 41.811 12.0033 40.9593 12.855C40.1193 13.695 39.4543 14.6808 38.9643 15.8125C38.4743 16.9442 38.2293 18.1575 38.2293 19.4525ZM65.047 32V6.9225H74.462C75.617 6.9225 76.7253 7.07417 77.787 7.3775C78.8603 7.66917 79.8578 8.08917 80.7795 8.6375C81.7128 9.18583 82.5586 9.845 83.317 10.615C84.087 11.3733 84.7461 12.2192 85.2945 13.1525C85.8428 14.0742 86.2628 15.0717 86.5545 16.145C86.8578 17.2067 87.0095 18.315 87.0095 19.47C87.0095 20.625 86.8578 21.7392 86.5545 22.8125C86.2628 23.8742 85.8428 24.8717 85.2945 25.805C84.7461 26.7267 84.087 27.5725 83.317 28.3425C82.5586 29.1008 81.7128 29.7542 80.7795 30.3025C79.8578 30.8392 78.8603 31.2592 77.787 31.5625C76.7253 31.8542 75.617 32 74.462 32H65.047ZM74.462 28.535C75.7103 28.535 76.8828 28.3017 77.9795 27.835C79.0878 27.3567 80.0503 26.7092 80.867 25.8925C81.6953 25.0642 82.3486 24.1017 82.827 23.005C83.3053 21.8967 83.5445 20.7183 83.5445 19.47C83.5445 18.2217 83.3053 17.0492 82.827 15.9525C82.3486 14.8442 81.6953 13.8817 80.867 13.065C80.0503 12.2367 79.0878 11.5833 77.9795 11.105C76.8828 10.6267 75.7103 10.3875 74.462 10.3875H68.512V28.535H74.462ZM107.144 32H91.6388V6.9225H107.144V10.3875H95.1038V17.615H104.851V21.08H95.1038V28.535H107.144V32ZM112.01 32V6.9225H115.475V28.535H126.307V32H112.01ZM126.434 19.4525C126.434 18.2742 126.586 17.1425 126.889 16.0575C127.193 14.9608 127.624 13.94 128.184 12.995C128.744 12.0383 129.409 11.175 130.179 10.405C130.961 9.62333 131.824 8.9525 132.769 8.3925C133.726 7.8325 134.747 7.40083 135.832 7.0975C136.928 6.79416 138.066 6.6425 139.244 6.6425C140.423 6.6425 141.554 6.79416 142.639 7.0975C143.736 7.40083 144.757 7.8325 145.702 8.3925C146.658 8.9525 147.522 9.62333 148.292 10.405C149.073 11.175 149.744 12.0383 150.304 12.995C150.864 13.94 151.296 14.9608 151.599 16.0575C151.903 17.1425 152.054 18.2742 152.054 19.4525C152.054 20.6308 151.903 21.7683 151.599 22.865C151.296 23.95 150.864 24.9708 150.304 25.9275C149.744 26.8725 149.073 27.7358 148.292 28.5175C147.522 29.2875 146.658 29.9525 145.702 30.5125C144.757 31.0725 143.736 31.5042 142.639 31.8075C141.554 32.1108 140.423 32.2625 139.244 32.2625C137.471 32.2625 135.808 31.93 134.257 31.265C132.705 30.5883 131.346 29.6725 130.179 28.5175C129.024 27.3508 128.108 25.9917 127.432 24.44C126.767 22.8883 126.434 21.2258 126.434 19.4525ZM129.899 19.4525C129.899 20.7475 130.144 21.9608 130.634 23.0925C131.124 24.2242 131.789 25.2158 132.629 26.0675C133.481 26.9075 134.473 27.5725 135.604 28.0625C136.736 28.5525 137.949 28.7975 139.244 28.7975C140.539 28.7975 141.753 28.5525 142.884 28.0625C144.016 27.5725 145.002 26.9075 145.842 26.0675C146.693 25.2158 147.364 24.2242 147.854 23.0925C148.344 21.9608 148.589 20.7475 148.589 19.4525C148.589 18.1575 148.344 16.9442 147.854 15.8125C147.364 14.6808 146.693 13.695 145.842 12.855C145.002 12.0033 144.016 11.3325 142.884 10.8425C141.753 10.3525 140.539 10.1075 139.244 10.1075C137.949 10.1075 136.736 10.3525 135.604 10.8425C134.473 11.3325 133.481 12.0033 132.629 12.855C131.789 13.695 131.124 14.6808 130.634 15.8125C130.144 16.9442 129.899 18.1575 129.899 19.4525Z" fill="#8E3209"/>
<path d="M167.045 32V6.9225H170.51V28.535H181.343V32H167.045ZM189.187 32H185.722V6.9225H189.187V32ZM199.69 32H196.225V6.9225H205.22C206.235 6.9225 207.186 7.115 208.073 7.5C208.971 7.885 209.747 8.41 210.4 9.075C211.065 9.72833 211.59 10.5042 211.975 11.4025C212.36 12.2892 212.553 13.24 212.553 14.255C212.553 15.0717 212.424 15.8533 212.168 16.6C211.923 17.335 211.573 18.0058 211.118 18.6125C210.663 19.2192 210.12 19.75 209.49 20.205C208.872 20.6483 208.195 20.9867 207.46 21.22L215.44 32H213.06C212.383 32 211.783 31.8717 211.258 31.615C210.744 31.3467 210.318 30.95 209.98 30.425L203.418 21.57H199.69V32ZM199.69 10.3875V18.105H205.22C205.757 18.105 206.258 18.0058 206.725 17.8075C207.192 17.6092 207.6 17.335 207.95 16.985C208.3 16.635 208.574 16.2267 208.773 15.76C208.983 15.2933 209.088 14.7917 209.088 14.255C209.088 13.7183 208.983 13.2167 208.773 12.75C208.574 12.2833 208.3 11.875 207.95 11.525C207.6 11.175 207.192 10.9008 206.725 10.7025C206.258 10.4925 205.757 10.3875 205.22 10.3875H199.69ZM222.58 32H219.115V6.9225H222.58V32ZM227.851 19.4525C227.851 18.2742 228.003 17.1425 228.306 16.0575C228.61 14.9608 229.041 13.94 229.601 12.995C230.161 12.0383 230.826 11.175 231.596 10.405C232.378 9.62333 233.241 8.9525 234.186 8.3925C235.143 7.8325 236.164 7.40083 237.249 7.0975C238.345 6.79416 239.483 6.6425 240.661 6.6425C241.84 6.6425 242.971 6.79416 244.056 7.0975C245.153 7.40083 246.174 7.8325 247.119 8.3925C248.075 8.9525 248.939 9.62333 249.709 10.405C250.49 11.175 251.161 12.0383 251.721 12.995C252.281 13.94 252.713 14.9608 253.016 16.0575C253.32 17.1425 253.471 18.2742 253.471 19.4525C253.471 20.6308 253.32 21.7683 253.016 22.865C252.713 23.95 252.281 24.9708 251.721 25.9275C251.161 26.8725 250.49 27.7358 249.709 28.5175C248.939 29.2875 248.075 29.9525 247.119 30.5125C246.174 31.0725 245.153 31.5042 244.056 31.8075C242.971 32.1108 241.84 32.2625 240.661 32.2625C238.888 32.2625 237.225 31.93 235.674 31.265C234.122 30.5883 232.763 29.6725 231.596 28.5175C230.441 27.3508 229.525 25.9917 228.849 24.44C228.184 22.8883 227.851 21.2258 227.851 19.4525ZM231.316 19.4525C231.316 20.7475 231.561 21.9608 232.051 23.0925C232.541 24.2242 233.206 25.2158 234.046 26.0675C234.898 26.9075 235.89 27.5725 237.021 28.0625C238.153 28.5525 239.366 28.7975 240.661 28.7975C241.956 28.7975 243.17 28.5525 244.301 28.0625C245.433 27.5725 246.419 26.9075 247.259 26.0675C248.11 25.2158 248.781 24.2242 249.271 23.0925C249.761 21.9608 250.006 20.7475 250.006 19.4525C250.006 18.1575 249.761 16.9442 249.271 15.8125C248.781 14.6808 248.11 13.695 247.259 12.855C246.419 12.0033 245.433 11.3325 244.301 10.8425C243.17 10.3525 241.956 10.1075 240.661 10.1075C239.366 10.1075 238.153 10.3525 237.021 10.8425C235.89 11.3325 234.898 12.0033 234.046 12.855C233.206 13.695 232.541 14.6808 232.051 15.8125C231.561 16.9442 231.316 18.1575 231.316 19.4525Z" fill="#0396A6"/>
</svg>
