<?xml version="1.0" encoding="iso-8859-1"?>
<!-- Uploaded to: SVG Repo, www.svgrepo.com, Generator: SVG Repo Mixer Tools -->
<svg fill="#000000" height="30" width="30" version="1.1" id="Layer_1" xmlns="http://www.w3.org/2000/svg" xmlns:xlink="http://www.w3.org/1999/xlink"
	 viewBox="0 0 512 512" xml:space="preserve">
<g transform="translate(0 -1)">
	<g>
		<path d="M503.467,449H384V320.727c71.427-4.407,128-63.724,128-136.26c0-75.403-61.13-136.533-136.533-136.533
			s-136.533,61.13-136.533,136.533c0,72.536,56.573,131.854,128,136.26V449h-76.8v-25.6H307.2c4.713,0,8.533-3.82,8.533-8.533
			v-21.026c0-15.113-11.104-27.626-25.6-29.829V346.6c0-4.713-3.82-8.533-8.533-8.533s-8.533,3.82-8.533,8.533v17.067h-34.133V346.6
			c0-4.713-3.82-8.533-8.533-8.533s-8.533,3.82-8.533,8.533v17.411c-14.496,2.203-25.6,14.716-25.6,29.829v21.026
			c0,4.713,3.82,8.533,8.533,8.533h17.067V449h-102.4v-77.123c57.277-4.358,102.4-52.218,102.4-110.61
			c0-61.263-49.67-110.933-110.933-110.933S0,200.003,0,261.267c0,58.392,45.123,106.252,102.4,110.61V449H8.533
			C3.82,449,0,452.821,0,457.533c0,4.713,3.82,8.533,8.533,8.533h494.933c4.713,0,8.533-3.821,8.533-8.533
			C512,452.821,508.18,449,503.467,449z M256,184.467C256,118.489,309.489,65,375.467,65s119.467,53.489,119.467,119.467
			c0,63.108-48.939,114.783-110.933,119.16v-64.425l23.101-23.101c3.332-3.332,3.332-8.735,0-12.068
			c-3.332-3.333-8.735-3.333-12.068,0l-19.566,19.566l-19.566-19.566c-3.333-3.333-8.736-3.333-12.068,0
			c-3.332,3.332-3.332,8.735,0,12.068l23.101,23.101v64.425C304.939,299.25,256,247.574,256,184.467z M17.067,261.267
			c0-51.838,42.029-93.867,93.867-93.867s93.867,42.029,93.867,93.867c0,48.96-37.495,89.164-85.333,93.476v-55.808l23.101-23.101
			c3.332-3.332,3.332-8.735,0-12.068c-3.332-3.333-8.735-3.333-12.068,0l-19.566,19.566l-19.566-19.566
			c-3.332-3.333-8.735-3.333-12.068,0c-3.333,3.332-3.333,8.735,0,12.068l23.101,23.101v55.808
			C54.562,350.43,17.067,310.227,17.067,261.267z M213.333,393.841c0-7.242,5.865-13.107,13.107-13.107h59.119
			c7.242,0,13.107,5.865,13.107,13.107v12.493h-85.333V393.841z M238.933,423.4h34.133V449h-34.133V423.4z"/>
	</g>
</g>
</svg>
