<?xml version="1.0" encoding="iso-8859-1"?>
<!-- Uploaded to: SVG Repo, www.svgrepo.com, Generator: SVG Repo Mixer Tools -->
<svg fill="#000000" height="30" width="30" version="1.1" id="Layer_1" xmlns="http://www.w3.org/2000/svg" xmlns:xlink="http://www.w3.org/1999/xlink"
	 viewBox="0 0 512.002 512.002" xml:space="preserve">
<g>
	<g>
		<path d="M501.8,442.072h-2.435v-317.82v-14.363c0-33.28-27.076-60.357-60.357-60.357h-92.796
			c-33.281,0-60.357,27.076-60.357,60.357v4.164h-22.287c-2.009,0-3.974,0.594-5.647,1.706l-6.511,4.329
			c-44.916,29.867-83.469,70.016-111.493,116.107l-12.327,20.274c-27.28,44.868-57.985,88.215-91.261,128.836L5.516,422.919
			c-5.99,7.312-7.197,17.16-3.153,25.703c4.045,8.543,12.43,13.849,21.881,13.849c7.145,0,13.887-3.131,18.498-8.591l20.168-23.885
			c14.981-17.742,29.45-35.997,43.369-54.679v75.603c0,5.633,4.566,10.199,10.199,10.199s10.199-4.566,10.199-10.199v-103.87
			c16.604-23.75,32.319-48.11,47.03-72.96l3.317-5.602c8.24-13.919,17.487-27.279,27.617-39.956v223.288
			c0,5.633,4.566,10.199,10.199,10.199s10.199-4.566,10.199-10.199V205.19c17.254-18.091,36.412-34.363,57.037-48.328l3.781-2.56
			v277.886c0,16.698,13.584,30.282,30.282,30.282h56.391c16.698,0,30.282-13.584,30.282-30.282V409.68h76.158v32.392h-2.435
			c-5.633,0-10.199,4.566-10.199,10.199s4.566,10.199,10.199,10.199h25.267c5.633,0,10.199-4.566,10.199-10.199
			S507.433,442.072,501.8,442.072z M270.638,139.971c-45.026,30.486-83.467,71.333-111.169,118.125l-3.317,5.602
			c-31.864,53.824-68.479,105.346-108.831,153.135l-20.168,23.885c-0.726,0.86-1.787,1.353-2.912,1.353
			c-2.099,0-3.06-1.366-3.444-2.181c-0.384-0.815-0.833-2.422,0.497-4.047l30.813-37.614c33.878-41.356,65.137-85.485,92.91-131.165
			l12.327-20.274c26.482-43.555,62.915-81.494,105.358-109.718l3.945-2.623h12.144L270.638,139.971z M382.411,432.189
			c0,5.45-4.434,9.884-9.884,9.884h-56.391c-5.45,0-9.884-4.434-9.884-9.884V134.45h76.158V432.189z M392.609,94.2
			c-5.633,0-10.199,4.566-10.199,10.199v9.653h-76.158v-4.164h0.001c0-22.034,17.926-39.959,39.959-39.959h92.796
			c22.034,0,39.959,17.926,39.959,39.959v4.164h-76.158v-9.653C402.808,98.766,398.242,94.2,392.609,94.2z M478.967,389.282h-76.158
			v-25.624h76.158V389.282z M478.967,343.26h-76.158v-25.624h76.158V343.26z M478.967,297.238h-76.158v-25.624h76.158V297.238z
			 M478.967,251.215h-76.158v-25.624h76.158V251.215z M478.967,205.193h-76.158v-25.624h76.158V205.193z M478.967,159.172h-76.158
			V134.45h76.158V159.172z"/>
	</g>
</g>
<g>
	<g>
		<path d="M325.832,346.87c-5.633,0-10.199,4.566-10.199,10.199v64.973c0,5.632,4.566,10.198,10.199,10.198
			s10.199-4.566,10.199-10.199v-64.972C336.032,351.436,331.465,346.87,325.832,346.87z"/>
	</g>
</g>
<g>
	<g>
		<path d="M325.832,309.871c-5.633,0-10.199,4.566-10.199,10.199v5.415c0,5.633,4.566,10.199,10.199,10.199
			s10.199-4.566,10.199-10.199v-5.415C336.032,314.437,331.465,309.871,325.832,309.871z"/>
	</g>
</g>
</svg>
