<?xml version="1.0" encoding="iso-8859-1"?>
<!-- Uploaded to: SVG Repo, www.svgrepo.com, Generator: SVG Repo Mixer Tools -->
<svg fill="#000000" height="30" width="30" version="1.1" id="Layer_1" xmlns="http://www.w3.org/2000/svg" xmlns:xlink="http://www.w3.org/1999/xlink"
	 viewBox="0 0 512 512" xml:space="preserve">
<g>
	<g>
		<path d="M478.084,426.326c-5.633,0-10.199,4.567-10.199,10.199v5.1c0,5.632,4.566,10.199,10.199,10.199
			c5.633,0,10.199-4.567,10.199-10.199v-5.1C488.283,430.893,483.717,426.326,478.084,426.326z"/>
	</g>
</g>
<g>
	<g>
		<path d="M501.801,467.884h-47.435c-5.633,0-10.199,4.567-10.199,10.199c0,5.632,4.566,10.199,10.199,10.199h47.435
			c5.633,0,10.199-4.567,10.199-10.199C512,472.451,507.434,467.884,501.801,467.884z"/>
	</g>
</g>
<g>
	<g>
		<path d="M426.874,23.717H85.126c-33.711,0-61.138,27.305-61.138,60.87v383.298H10.199C4.566,467.885,0,472.452,0,478.084
			c0,5.632,4.566,10.199,10.199,10.199h47.435c5.633,0,10.199-4.567,10.199-10.199c0-5.632-4.566-10.199-10.199-10.199H44.386
			V94.786h101.792v124.971c-43.852,5.127-77.995,42.502-77.995,87.709c0,48.696,39.618,88.314,88.314,88.314
			s88.314-39.618,88.314-88.314c0-45.289-34.267-82.718-78.235-87.736V94.786h178.609v124.971
			c-43.852,5.126-77.996,42.502-77.996,87.709c0,48.696,39.618,88.314,88.314,88.314c48.696,0,88.314-39.618,88.314-88.314
			c0.001-45.29-34.266-82.718-78.233-87.737V94.786h102.3v306.042c0,5.632,4.566,10.199,10.199,10.199
			c5.633,0,10.199-4.567,10.199-10.199V84.587C488.282,51.023,460.735,23.717,426.874,23.717z M166.576,240.301
			c32.685,4.884,57.836,33.139,57.836,67.164c0,37.448-30.467,67.915-67.915,67.915s-67.915-30.467-67.915-67.915
			c0-33.942,25.028-62.148,57.597-67.133v24.698c-19.118,4.65-33.359,21.906-33.359,42.435c0,24.083,19.594,43.676,43.677,43.676
			s43.677-19.593,43.677-43.676c0-20.614-14.358-37.926-33.597-42.49V240.301z M179.775,307.464
			c0,12.836-10.443,23.278-23.279,23.278s-23.279-10.442-23.279-23.278c0-9.145,5.304-17.071,12.995-20.876
			c0.353,5.312,4.763,9.515,10.165,9.515c5.441,0,9.875-4.265,10.171-9.633C174.366,290.228,179.775,298.226,179.775,307.464z
			 M365.584,240.3c32.685,4.884,57.836,33.14,57.836,67.164c-0.001,37.449-30.468,67.917-67.917,67.917
			s-67.915-30.467-67.915-67.915c0-33.942,25.028-62.148,57.598-67.134v24.698c-19.118,4.65-33.359,21.906-33.359,42.435
			c0,24.083,19.593,43.676,43.677,43.676s43.677-19.593,43.677-43.676c0-20.614-14.359-37.926-33.597-42.49V240.3z M378.782,307.465
			c0,12.836-10.443,23.278-23.279,23.278s-23.279-10.442-23.279-23.278c0-9.146,5.304-17.072,12.995-20.877
			c0.353,5.312,4.763,9.516,10.165,9.516c5.441,0,9.875-4.265,10.171-9.633C373.372,290.229,378.782,298.227,378.782,307.465z
			 M365.584,74.387v-5.033c0-5.632-4.566-10.199-10.199-10.199c-5.633,0-10.199,4.567-10.199,10.199v5.033H166.576v-5.033
			c0-5.632-4.566-10.199-10.199-10.199c-5.633,0-10.199,4.567-10.199,10.199v5.033H45.695c4.563-17.394,20.512-30.272,39.43-30.272
			h341.749c19.044,0,35.097,12.878,39.691,30.272H365.584z"/>
	</g>
</g>
</svg>
